<svg xmlns="http://www.w3.org/2000/svg" viewBox="-0.009259259328246117 10.859999656677246 36.70215606689453 38.209999084472656" data-asc="0.9765625" width="36.70215606689453" height="38.209999084472656"><defs/><g fill="#0b1e39"><g transform="translate(0, 0)"><path d="M22.36 43.29Q22.36 39.99 24.24 33.18Q18.36 33.33 15.23 33.52Q14.28 35.25 13.50 36.82L11.99 39.82Q8.98 45.73 6.59 47.61Q4.76 49.07 2.71 49.07Q1.15 49.07 0.34 48.05Q0.05 47.63 0 47.25Q-0.05 46.88 0.17 46.75Q2.98 45.70 4.74 43.55Q6.27 41.63 7.81 38.84L10.57 33.91L9.03 34.13Q7.57 34.40 7.57 33.67Q7.57 32.93 8.45 32.28Q9.99 31.13 11.45 30.76L12.50 30.52Q16.50 23.90 18.62 21.26Q20.73 18.63 22.47 16.87Q24.22 15.11 26.15 13.77Q30.37 10.86 34.47 10.86Q35.72 10.86 36.16 11.38Q36.89 12.18 36.62 13.10Q36.35 14.01 35.74 15.72Q31.84 26.37 30.98 28.91Q31.37 28.88 31.69 28.88L32.23 28.88Q34.96 28.88 35.16 29.42Q35.21 29.59 35.21 30.04Q35.21 30.49 34.92 31.08Q34.64 31.67 34.01 32.08Q32.71 32.96 29.66 33.11Q28.00 38.84 27.77 41.04Q27.54 43.24 27.92 44.01Q28.30 44.78 28.99 44.78Q29.69 44.78 30.13 44.64Q30.57 44.51 30.91 44.34L31.54 44.04Q31.79 43.90 32.04 43.90Q32.30 43.90 32.47 44.23Q32.64 44.56 32.64 45.09Q32.64 45.63 32.19 46.37Q31.74 47.12 31.01 47.71Q29.30 49.07 27.15 49.07Q23.85 49.07 22.75 46.14Q22.36 45.12 22.36 44.31L22.36 43.29M17.48 29.66Q21.83 29.10 25.54 29.00Q26.22 26.90 27.00 24.85L28.52 20.95Q29.30 19.09 30.05 17.43L31.47 14.43Q26.39 15.75 21.44 23.19Q20.39 24.76 19.38 26.42L17.48 29.66Z"/></g></g></svg>